<svg width="48" height="48" viewBox="0 0 48 48" fill="none" xmlns="http://www.w3.org/2000/svg">
<g clip-path="url(#clip0_2159_75)">
<rect width="48" height="48" rx="8" fill="#1A1D24"/>
<rect x="8" y="40" width="2" height="32" rx="1" transform="rotate(-90 8 40)" fill="url(#paint0_linear_2159_75)"/>
<rect width="2" height="3" transform="translate(8 22)" fill="url(#paint1_linear_2159_75)"/>
<rect x="38" y="8" width="2" height="32" rx="1" fill="url(#paint2_linear_2159_75)"/>
<rect width="2" height="3" transform="translate(8 33)" fill="url(#paint3_linear_2159_75)"/>
<rect x="8" y="10" width="2" height="32" rx="1" transform="rotate(-90 8 10)" fill="url(#paint4_linear_2159_75)"/>
<rect x="8" y="8" width="2" height="17" rx="1" fill="url(#paint5_linear_2159_75)"/>
<path d="M3.498 31V26.8H5.316C5.692 26.8 6.016 26.862 6.288 26.986C6.56 27.106 6.77 27.28 6.918 27.508C7.066 27.736 7.14 28.008 7.14 28.324C7.14 28.636 7.066 28.906 6.918 29.134C6.77 29.358 6.56 29.53 6.288 29.65C6.016 29.77 5.692 29.83 5.316 29.83H4.038L4.47 29.404V31H3.498ZM6.168 31L5.118 29.476H6.156L7.218 31H6.168ZM4.47 29.512L4.038 29.056H5.262C5.562 29.056 5.786 28.992 5.934 28.864C6.082 28.732 6.156 28.552 6.156 28.324C6.156 28.092 6.082 27.912 5.934 27.784C5.786 27.656 5.562 27.592 5.262 27.592H4.038L4.47 27.13V29.512ZM9.92011 31.072C9.59611 31.072 9.29411 31.02 9.01411 30.916C8.73811 30.808 8.49811 30.656 8.29411 30.46C8.09011 30.264 7.93011 30.034 7.81411 29.77C7.70211 29.506 7.64611 29.216 7.64611 28.9C7.64611 28.584 7.70211 28.294 7.81411 28.03C7.93011 27.766 8.09011 27.536 8.29411 27.34C8.50211 27.144 8.74411 26.994 9.02011 26.89C9.29611 26.782 9.59811 26.728 9.92611 26.728C10.2901 26.728 10.6181 26.792 10.9101 26.92C11.2061 27.044 11.4541 27.228 11.6541 27.472L11.0301 28.048C10.8861 27.884 10.7261 27.762 10.5501 27.682C10.3741 27.598 10.1821 27.556 9.97411 27.556C9.77811 27.556 9.59811 27.588 9.43411 27.652C9.27011 27.716 9.12811 27.808 9.00811 27.928C8.88811 28.048 8.79411 28.19 8.72611 28.354C8.66211 28.518 8.63011 28.7 8.63011 28.9C8.63011 29.1 8.66211 29.282 8.72611 29.446C8.79411 29.61 8.88811 29.752 9.00811 29.872C9.12811 29.992 9.27011 30.084 9.43411 30.148C9.59811 30.212 9.77811 30.244 9.97411 30.244C10.1821 30.244 10.3741 30.204 10.5501 30.124C10.7261 30.04 10.8861 29.914 11.0301 29.746L11.6541 30.322C11.4541 30.566 11.2061 30.752 10.9101 30.88C10.6181 31.008 10.2881 31.072 9.92011 31.072ZM13.6692 31.048C13.3252 31.048 13.0192 30.976 12.7512 30.832C12.4872 30.688 12.2772 30.492 12.1212 30.244C11.9692 29.992 11.8932 29.706 11.8932 29.386C11.8932 29.062 11.9692 28.776 12.1212 28.528C12.2772 28.276 12.4872 28.08 12.7512 27.94C13.0192 27.796 13.3252 27.724 13.6692 27.724C14.0092 27.724 14.3132 27.796 14.5812 27.94C14.8492 28.08 15.0592 28.274 15.2112 28.522C15.3632 28.77 15.4392 29.058 15.4392 29.386C15.4392 29.706 15.3632 29.992 15.2112 30.244C15.0592 30.492 14.8492 30.688 14.5812 30.832C14.3132 30.976 14.0092 31.048 13.6692 31.048ZM13.6692 30.28C13.8252 30.28 13.9652 30.244 14.0892 30.172C14.2132 30.1 14.3112 29.998 14.3832 29.866C14.4552 29.73 14.4912 29.57 14.4912 29.386C14.4912 29.198 14.4552 29.038 14.3832 28.906C14.3112 28.774 14.2132 28.672 14.0892 28.6C13.9652 28.528 13.8252 28.492 13.6692 28.492C13.5132 28.492 13.3732 28.528 13.2492 28.6C13.1252 28.672 13.0252 28.774 12.9492 28.906C12.8772 29.038 12.8412 29.198 12.8412 29.386C12.8412 29.57 12.8772 29.73 12.9492 29.866C13.0252 29.998 13.1252 30.1 13.2492 30.172C13.3732 30.244 13.5132 30.28 13.6692 30.28ZM17.4508 31.048C17.1468 31.048 16.8728 30.98 16.6288 30.844C16.3848 30.704 16.1908 30.51 16.0468 30.262C15.9068 30.014 15.8368 29.722 15.8368 29.386C15.8368 29.046 15.9068 28.752 16.0468 28.504C16.1908 28.256 16.3848 28.064 16.6288 27.928C16.8728 27.792 17.1468 27.724 17.4508 27.724C17.7228 27.724 17.9608 27.784 18.1648 27.904C18.3688 28.024 18.5268 28.206 18.6388 28.45C18.7508 28.694 18.8068 29.006 18.8068 29.386C18.8068 29.762 18.7528 30.074 18.6448 30.322C18.5368 30.566 18.3808 30.748 18.1768 30.868C17.9768 30.988 17.7348 31.048 17.4508 31.048ZM17.6128 30.28C17.7648 30.28 17.9028 30.244 18.0268 30.172C18.1508 30.1 18.2488 29.998 18.3208 29.866C18.3968 29.73 18.4348 29.57 18.4348 29.386C18.4348 29.198 18.3968 29.038 18.3208 28.906C18.2488 28.774 18.1508 28.672 18.0268 28.6C17.9028 28.528 17.7648 28.492 17.6128 28.492C17.4568 28.492 17.3168 28.528 17.1928 28.6C17.0688 28.672 16.9688 28.774 16.8928 28.906C16.8208 29.038 16.7848 29.198 16.7848 29.386C16.7848 29.57 16.8208 29.73 16.8928 29.866C16.9688 29.998 17.0688 30.1 17.1928 30.172C17.3168 30.244 17.4568 30.28 17.6128 30.28ZM18.4588 31V30.34L18.4768 29.38L18.4168 28.426V26.548H19.3528V31H18.4588ZM21.8211 31.048C21.4531 31.048 21.1291 30.976 20.8491 30.832C20.5731 30.688 20.3591 30.492 20.2071 30.244C20.0551 29.992 19.9791 29.706 19.9791 29.386C19.9791 29.062 20.0531 28.776 20.2011 28.528C20.3531 28.276 20.5591 28.08 20.8191 27.94C21.0791 27.796 21.3731 27.724 21.7011 27.724C22.0171 27.724 22.3011 27.792 22.5531 27.928C22.8091 28.06 23.0111 28.252 23.1591 28.504C23.3071 28.752 23.3811 29.05 23.3811 29.398C23.3811 29.434 23.3791 29.476 23.3751 29.524C23.3711 29.568 23.3671 29.61 23.3631 29.65H20.7411V29.104H22.8711L22.5111 29.266C22.5111 29.098 22.4771 28.952 22.4091 28.828C22.3411 28.704 22.2471 28.608 22.1271 28.54C22.0071 28.468 21.8671 28.432 21.7071 28.432C21.5471 28.432 21.4051 28.468 21.2811 28.54C21.1611 28.608 21.0671 28.706 20.9991 28.834C20.9311 28.958 20.8971 29.106 20.8971 29.278V29.422C20.8971 29.598 20.9351 29.754 21.0111 29.89C21.0911 30.022 21.2011 30.124 21.3411 30.196C21.4851 30.264 21.6531 30.298 21.8451 30.298C22.0171 30.298 22.1671 30.272 22.2951 30.22C22.4271 30.168 22.5471 30.09 22.6551 29.986L23.1531 30.526C23.0051 30.694 22.8191 30.824 22.5951 30.916C22.3711 31.004 22.1131 31.048 21.8211 31.048Z" fill="white"/>
<rect x="8" y="33" width="2" height="7" rx="1" fill="url(#paint6_linear_2159_75)"/>
</g>
<defs>
<linearGradient id="paint0_linear_2159_75" x1="9.00001" y1="42" x2="9.00001" y2="72.5" gradientUnits="userSpaceOnUse">
<stop stop-color="#41D1FF"/>
<stop offset="1" stop-color="#23DA9A"/>
</linearGradient>
<linearGradient id="paint1_linear_2159_75" x1="1" y1="0" x2="1" y2="3" gradientUnits="userSpaceOnUse">
<stop stop-color="#FD123D"/>
<stop offset="1" stop-color="#8C12FD"/>
</linearGradient>
<linearGradient id="paint2_linear_2159_75" x1="39" y1="8" x2="39" y2="40" gradientUnits="userSpaceOnUse">
<stop stop-color="#FFC23E"/>
<stop offset="0.5" stop-color="#91CE6C"/>
<stop offset="1" stop-color="#23DA9A"/>
</linearGradient>
<linearGradient id="paint3_linear_2159_75" x1="1" y1="0" x2="1" y2="3" gradientUnits="userSpaceOnUse">
<stop stop-color="#9B12FD"/>
<stop offset="1" stop-color="#4DC6EB"/>
</linearGradient>
<linearGradient id="paint4_linear_2159_75" x1="9.00001" y1="12" x2="9.00001" y2="42" gradientUnits="userSpaceOnUse">
<stop stop-color="#FD123D"/>
<stop offset="1" stop-color="#FFCB3D"/>
</linearGradient>
<linearGradient id="paint5_linear_2159_75" x1="9" y1="8" x2="9" y2="25" gradientUnits="userSpaceOnUse">
<stop stop-color="#FD123D"/>
<stop offset="1" stop-color="#8C12FD"/>
</linearGradient>
<linearGradient id="paint6_linear_2159_75" x1="9" y1="33" x2="9" y2="40" gradientUnits="userSpaceOnUse">
<stop stop-color="#9B12FD"/>
<stop offset="1" stop-color="#4DC6EB"/>
</linearGradient>
<clipPath id="clip0_2159_75">
<rect width="48" height="48" rx="8" fill="white"/>
</clipPath>
</defs>
</svg>
