<svg width="60" height="46" viewBox="0 0 60 46" fill="none" xmlns="http://www.w3.org/2000/svg">
<rect width="2.85713" height="45.7141" transform="matrix(0 -1 1 0 14.2861 45.7141)" fill="url(#paint0_linear_2164_75)"/>
<rect width="2.85713" height="45.7141" transform="translate(57.1426)" fill="url(#paint1_linear_2164_75)"/>
<rect width="2.85713" height="45.7141" transform="matrix(0 -1 1 0 14.2861 2.85718)" fill="url(#paint2_linear_2164_75)"/>
<rect width="2.85713" height="24.2856" transform="translate(14.2861)" fill="url(#paint3_linear_2164_75)"/>
<g clip-path="url(#clip0_2164_75)">
<path d="M8.80658 32.2856V26.6856H11.2306C11.7319 26.6856 12.1639 26.7683 12.5266 26.9336C12.8892 27.0936 13.1692 27.3256 13.3666 27.6296C13.5639 27.9336 13.6626 28.2963 13.6626 28.7176C13.6626 29.1336 13.5639 29.4936 13.3666 29.7976C13.1692 30.0963 12.8892 30.3256 12.5266 30.4856C12.1639 30.6456 11.7319 30.7256 11.2306 30.7256H9.52658L10.1026 30.1576V32.2856H8.80658ZM12.3666 32.2856L10.9666 30.2536H12.3506L13.7666 32.2856H12.3666ZM10.1026 30.3016L9.52658 29.6936H11.1586C11.5586 29.6936 11.8572 29.6083 12.0546 29.4376C12.2519 29.2616 12.3506 29.0216 12.3506 28.7176C12.3506 28.4083 12.2519 28.1683 12.0546 27.9976C11.8572 27.827 11.5586 27.7416 11.1586 27.7416H9.52658L10.1026 27.1256V30.3016ZM17.3694 32.3816C16.9374 32.3816 16.5347 32.3123 16.1614 32.1736C15.7934 32.0296 15.4734 31.827 15.2014 31.5656C14.9294 31.3043 14.7161 30.9976 14.5614 30.6456C14.4121 30.2936 14.3374 29.907 14.3374 29.4856C14.3374 29.0643 14.4121 28.6776 14.5614 28.3256C14.7161 27.9736 14.9294 27.667 15.2014 27.4056C15.4787 27.1443 15.8014 26.9443 16.1694 26.8056C16.5374 26.6616 16.9401 26.5896 17.3774 26.5896C17.8627 26.5896 18.3001 26.675 18.6894 26.8456C19.0841 27.011 19.4147 27.2563 19.6814 27.5816L18.8494 28.3496C18.6574 28.131 18.4441 27.9683 18.2094 27.8616C17.9747 27.7496 17.7187 27.6936 17.4414 27.6936C17.1801 27.6936 16.9401 27.7363 16.7214 27.8216C16.5027 27.907 16.3134 28.0296 16.1534 28.1896C15.9934 28.3496 15.8681 28.539 15.7774 28.7576C15.6921 28.9763 15.6494 29.219 15.6494 29.4856C15.6494 29.7523 15.6921 29.995 15.7774 30.2136C15.8681 30.4323 15.9934 30.6216 16.1534 30.7816C16.3134 30.9416 16.5027 31.0643 16.7214 31.1496C16.9401 31.235 17.1801 31.2776 17.4414 31.2776C17.7187 31.2776 17.9747 31.2243 18.2094 31.1176C18.4441 31.0056 18.6574 30.8376 18.8494 30.6136L19.6814 31.3816C19.4147 31.707 19.0841 31.955 18.6894 32.1256C18.3001 32.2963 17.8601 32.3816 17.3694 32.3816ZM22.3681 32.3496C21.9095 32.3496 21.5015 32.2536 21.1441 32.0616C20.7921 31.8696 20.5121 31.6083 20.3041 31.2776C20.1015 30.9416 20.0001 30.5603 20.0001 30.1336C20.0001 29.7016 20.1015 29.3203 20.3041 28.9896C20.5121 28.6536 20.7921 28.3923 21.1441 28.2056C21.5015 28.0136 21.9095 27.9176 22.3681 27.9176C22.8215 27.9176 23.2268 28.0136 23.5841 28.2056C23.9415 28.3923 24.2215 28.651 24.4241 28.9816C24.6268 29.3123 24.7281 29.6963 24.7281 30.1336C24.7281 30.5603 24.6268 30.9416 24.4241 31.2776C24.2215 31.6083 23.9415 31.8696 23.5841 32.0616C23.2268 32.2536 22.8215 32.3496 22.3681 32.3496ZM22.3681 31.3256C22.5761 31.3256 22.7628 31.2776 22.9281 31.1816C23.0935 31.0856 23.2241 30.9496 23.3201 30.7736C23.4161 30.5923 23.4641 30.379 23.4641 30.1336C23.4641 29.883 23.4161 29.6696 23.3201 29.4936C23.2241 29.3176 23.0935 29.1816 22.9281 29.0856C22.7628 28.9896 22.5761 28.9416 22.3681 28.9416C22.1601 28.9416 21.9735 28.9896 21.8081 29.0856C21.6428 29.1816 21.5095 29.3176 21.4081 29.4936C21.3121 29.6696 21.2641 29.883 21.2641 30.1336C21.2641 30.379 21.3121 30.5923 21.4081 30.7736C21.5095 30.9496 21.6428 31.0856 21.8081 31.1816C21.9735 31.2776 22.1601 31.3256 22.3681 31.3256ZM27.4103 32.3496C27.005 32.3496 26.6397 32.259 26.3143 32.0776C25.989 31.891 25.7303 31.6323 25.5383 31.3016C25.3517 30.971 25.2583 30.5816 25.2583 30.1336C25.2583 29.6803 25.3517 29.2883 25.5383 28.9576C25.7303 28.627 25.989 28.371 26.3143 28.1896C26.6397 28.0083 27.005 27.9176 27.4103 27.9176C27.773 27.9176 28.0903 27.9976 28.3623 28.1576C28.6343 28.3176 28.845 28.5603 28.9943 28.8856C29.1437 29.211 29.2183 29.627 29.2183 30.1336C29.2183 30.635 29.1463 31.051 29.0023 31.3816C28.8583 31.707 28.6503 31.9496 28.3783 32.1096C28.1117 32.2696 27.789 32.3496 27.4103 32.3496ZM27.6263 31.3256C27.829 31.3256 28.013 31.2776 28.1783 31.1816C28.3437 31.0856 28.4743 30.9496 28.5703 30.7736C28.6717 30.5923 28.7223 30.379 28.7223 30.1336C28.7223 29.883 28.6717 29.6696 28.5703 29.4936C28.4743 29.3176 28.3437 29.1816 28.1783 29.0856C28.013 28.9896 27.829 28.9416 27.6263 28.9416C27.4183 28.9416 27.2317 28.9896 27.0663 29.0856C26.901 29.1816 26.7677 29.3176 26.6663 29.4936C26.5703 29.6696 26.5223 29.883 26.5223 30.1336C26.5223 30.379 26.5703 30.5923 26.6663 30.7736C26.7677 30.9496 26.901 31.0856 27.0663 31.1816C27.2317 31.2776 27.4183 31.3256 27.6263 31.3256ZM28.7543 32.2856V31.4056L28.7783 30.1256L28.6983 28.8536V26.3496H29.9463V32.2856H28.7543ZM33.2374 32.3496C32.7467 32.3496 32.3147 32.2536 31.9414 32.0616C31.5734 31.8696 31.2881 31.6083 31.0854 31.2776C30.8827 30.9416 30.7814 30.5603 30.7814 30.1336C30.7814 29.7016 30.8801 29.3203 31.0774 28.9896C31.2801 28.6536 31.5547 28.3923 31.9014 28.2056C32.2481 28.0136 32.6401 27.9176 33.0774 27.9176C33.4987 27.9176 33.8774 28.0083 34.2134 28.1896C34.5547 28.3656 34.8241 28.6216 35.0214 28.9576C35.2187 29.2883 35.3174 29.6856 35.3174 30.1496C35.3174 30.1976 35.3147 30.2536 35.3094 30.3176C35.3041 30.3763 35.2987 30.4323 35.2934 30.4856H31.7974V29.7576H34.6374L34.1574 29.9736C34.1574 29.7496 34.1121 29.555 34.0214 29.3896C33.9307 29.2243 33.8054 29.0963 33.6454 29.0056C33.4854 28.9096 33.2987 28.8616 33.0854 28.8616C32.8721 28.8616 32.6827 28.9096 32.5174 29.0056C32.3574 29.0963 32.2321 29.227 32.1414 29.3976C32.0507 29.563 32.0054 29.7603 32.0054 29.9896V30.1816C32.0054 30.4163 32.0561 30.6243 32.1574 30.8056C32.2641 30.9816 32.4107 31.1176 32.5974 31.2136C32.7894 31.3043 33.0134 31.3496 33.2694 31.3496C33.4987 31.3496 33.6987 31.315 33.8694 31.2456C34.0454 31.1763 34.2054 31.0723 34.3494 30.9336L35.0134 31.6536C34.8161 31.8776 34.5681 32.051 34.2694 32.1736C33.9707 32.291 33.6267 32.3496 33.2374 32.3496Z" fill="#1A1D24"/>
</g>
<rect width="2.85713" height="9.99996" transform="translate(14.2861 35.7141)" fill="url(#paint4_linear_2164_75)"/>
<defs>
<linearGradient id="paint0_linear_2164_75" x1="1.42858" y1="2.85713" x2="1.42857" y2="46.4284" gradientUnits="userSpaceOnUse">
<stop stop-color="#41D1FF"/>
<stop offset="1" stop-color="#23DA9A"/>
</linearGradient>
<linearGradient id="paint1_linear_2164_75" x1="1.42857" y1="0" x2="1.42857" y2="45.7141" gradientUnits="userSpaceOnUse">
<stop stop-color="#FFC23E"/>
<stop offset="0.5" stop-color="#91CE6C"/>
<stop offset="1" stop-color="#23DA9A"/>
</linearGradient>
<linearGradient id="paint2_linear_2164_75" x1="1.42858" y1="2.85713" x2="1.42858" y2="45.7141" gradientUnits="userSpaceOnUse">
<stop stop-color="#FD123D"/>
<stop offset="1" stop-color="#FFCB3D"/>
</linearGradient>
<linearGradient id="paint3_linear_2164_75" x1="1.42857" y1="0" x2="1.42857" y2="24.2856" gradientUnits="userSpaceOnUse">
<stop stop-color="#FD123D"/>
<stop offset="1" stop-color="#8C12FD"/>
</linearGradient>
<linearGradient id="paint4_linear_2164_75" x1="1.42857" y1="0" x2="1.42857" y2="9.99996" gradientUnits="userSpaceOnUse">
<stop stop-color="#9B12FD"/>
<stop offset="1" stop-color="#4DC6EB"/>
</linearGradient>
<clipPath id="clip0_2164_75">
<rect width="44.2855" height="9.99996" fill="white" transform="translate(0 24.2856)"/>
</clipPath>
</defs>
</svg>
