<svg width="60" height="46" viewBox="0 0 60 46" fill="none" xmlns="http://www.w3.org/2000/svg">
<rect width="2.85713" height="45.7141" transform="matrix(0 -1 1 0 14.2861 45.8572)" fill="url(#paint0_linear_2160_146)"/>
<rect width="2.85713" height="45.7141" transform="translate(57.1426 0.143066)" fill="url(#paint1_linear_2160_146)"/>
<rect width="2.85713" height="45.7141" transform="matrix(0 -1 1 0 14.2861 3.00024)" fill="url(#paint2_linear_2160_146)"/>
<rect width="2.85713" height="24.2856" transform="translate(14.2861 0.143066)" fill="url(#paint3_linear_2160_146)"/>
<g clip-path="url(#clip0_2160_146)">
<path d="M8.80658 32.4287V26.8287H11.2306C11.7319 26.8287 12.1639 26.9114 12.5266 27.0767C12.8892 27.2367 13.1692 27.4687 13.3666 27.7727C13.5639 28.0767 13.6626 28.4394 13.6626 28.8607C13.6626 29.2767 13.5639 29.6367 13.3666 29.9407C13.1692 30.2394 12.8892 30.4687 12.5266 30.6287C12.1639 30.7887 11.7319 30.8687 11.2306 30.8687H9.52658L10.1026 30.3007V32.4287H8.80658ZM12.3666 32.4287L10.9666 30.3967H12.3506L13.7666 32.4287H12.3666ZM10.1026 30.4447L9.52658 29.8367H11.1586C11.5586 29.8367 11.8572 29.7514 12.0546 29.5807C12.2519 29.4047 12.3506 29.1647 12.3506 28.8607C12.3506 28.5514 12.2519 28.3114 12.0546 28.1407C11.8572 27.97 11.5586 27.8847 11.1586 27.8847H9.52658L10.1026 27.2687V30.4447ZM17.3694 32.5247C16.9374 32.5247 16.5347 32.4554 16.1614 32.3167C15.7934 32.1727 15.4734 31.97 15.2014 31.7087C14.9294 31.4474 14.7161 31.1407 14.5614 30.7887C14.4121 30.4367 14.3374 30.05 14.3374 29.6287C14.3374 29.2074 14.4121 28.8207 14.5614 28.4687C14.7161 28.1167 14.9294 27.81 15.2014 27.5487C15.4787 27.2874 15.8014 27.0874 16.1694 26.9487C16.5374 26.8047 16.9401 26.7327 17.3774 26.7327C17.8627 26.7327 18.3001 26.818 18.6894 26.9887C19.0841 27.154 19.4147 27.3994 19.6814 27.7247L18.8494 28.4927C18.6574 28.274 18.4441 28.1114 18.2094 28.0047C17.9747 27.8927 17.7187 27.8367 17.4414 27.8367C17.1801 27.8367 16.9401 27.8794 16.7214 27.9647C16.5027 28.05 16.3134 28.1727 16.1534 28.3327C15.9934 28.4927 15.8681 28.682 15.7774 28.9007C15.6921 29.1194 15.6494 29.362 15.6494 29.6287C15.6494 29.8954 15.6921 30.138 15.7774 30.3567C15.8681 30.5754 15.9934 30.7647 16.1534 30.9247C16.3134 31.0847 16.5027 31.2074 16.7214 31.2927C16.9401 31.378 17.1801 31.4207 17.4414 31.4207C17.7187 31.4207 17.9747 31.3674 18.2094 31.2607C18.4441 31.1487 18.6574 30.9807 18.8494 30.7567L19.6814 31.5247C19.4147 31.85 19.0841 32.098 18.6894 32.2687C18.3001 32.4394 17.8601 32.5247 17.3694 32.5247ZM22.3681 32.4927C21.9095 32.4927 21.5015 32.3967 21.1441 32.2047C20.7921 32.0127 20.5121 31.7514 20.3041 31.4207C20.1015 31.0847 20.0001 30.7034 20.0001 30.2767C20.0001 29.8447 20.1015 29.4634 20.3041 29.1327C20.5121 28.7967 20.7921 28.5354 21.1441 28.3487C21.5015 28.1567 21.9095 28.0607 22.3681 28.0607C22.8215 28.0607 23.2268 28.1567 23.5841 28.3487C23.9415 28.5354 24.2215 28.794 24.4241 29.1247C24.6268 29.4554 24.7281 29.8394 24.7281 30.2767C24.7281 30.7034 24.6268 31.0847 24.4241 31.4207C24.2215 31.7514 23.9415 32.0127 23.5841 32.2047C23.2268 32.3967 22.8215 32.4927 22.3681 32.4927ZM22.3681 31.4687C22.5761 31.4687 22.7628 31.4207 22.9281 31.3247C23.0935 31.2287 23.2241 31.0927 23.3201 30.9167C23.4161 30.7354 23.4641 30.522 23.4641 30.2767C23.4641 30.026 23.4161 29.8127 23.3201 29.6367C23.2241 29.4607 23.0935 29.3247 22.9281 29.2287C22.7628 29.1327 22.5761 29.0847 22.3681 29.0847C22.1601 29.0847 21.9735 29.1327 21.8081 29.2287C21.6428 29.3247 21.5095 29.4607 21.4081 29.6367C21.3121 29.8127 21.2641 30.026 21.2641 30.2767C21.2641 30.522 21.3121 30.7354 21.4081 30.9167C21.5095 31.0927 21.6428 31.2287 21.8081 31.3247C21.9735 31.4207 22.1601 31.4687 22.3681 31.4687ZM27.4103 32.4927C27.005 32.4927 26.6397 32.402 26.3143 32.2207C25.989 32.034 25.7303 31.7754 25.5383 31.4447C25.3517 31.114 25.2583 30.7247 25.2583 30.2767C25.2583 29.8234 25.3517 29.4314 25.5383 29.1007C25.7303 28.77 25.989 28.514 26.3143 28.3327C26.6397 28.1514 27.005 28.0607 27.4103 28.0607C27.773 28.0607 28.0903 28.1407 28.3623 28.3007C28.6343 28.4607 28.845 28.7034 28.9943 29.0287C29.1437 29.354 29.2183 29.77 29.2183 30.2767C29.2183 30.778 29.1463 31.194 29.0023 31.5247C28.8583 31.85 28.6503 32.0927 28.3783 32.2527C28.1117 32.4127 27.789 32.4927 27.4103 32.4927ZM27.6263 31.4687C27.829 31.4687 28.013 31.4207 28.1783 31.3247C28.3437 31.2287 28.4743 31.0927 28.5703 30.9167C28.6717 30.7354 28.7223 30.522 28.7223 30.2767C28.7223 30.026 28.6717 29.8127 28.5703 29.6367C28.4743 29.4607 28.3437 29.3247 28.1783 29.2287C28.013 29.1327 27.829 29.0847 27.6263 29.0847C27.4183 29.0847 27.2317 29.1327 27.0663 29.2287C26.901 29.3247 26.7677 29.4607 26.6663 29.6367C26.5703 29.8127 26.5223 30.026 26.5223 30.2767C26.5223 30.522 26.5703 30.7354 26.6663 30.9167C26.7677 31.0927 26.901 31.2287 27.0663 31.3247C27.2317 31.4207 27.4183 31.4687 27.6263 31.4687ZM28.7543 32.4287V31.5487L28.7783 30.2687L28.6983 28.9967V26.4927H29.9463V32.4287H28.7543ZM33.2374 32.4927C32.7467 32.4927 32.3147 32.3967 31.9414 32.2047C31.5734 32.0127 31.2881 31.7514 31.0854 31.4207C30.8827 31.0847 30.7814 30.7034 30.7814 30.2767C30.7814 29.8447 30.8801 29.4634 31.0774 29.1327C31.2801 28.7967 31.5547 28.5354 31.9014 28.3487C32.2481 28.1567 32.6401 28.0607 33.0774 28.0607C33.4987 28.0607 33.8774 28.1514 34.2134 28.3327C34.5547 28.5087 34.8241 28.7647 35.0214 29.1007C35.2187 29.4314 35.3174 29.8287 35.3174 30.2927C35.3174 30.3407 35.3147 30.3967 35.3094 30.4607C35.3041 30.5194 35.2987 30.5754 35.2934 30.6287H31.7974V29.9007H34.6374L34.1574 30.1167C34.1574 29.8927 34.1121 29.698 34.0214 29.5327C33.9307 29.3674 33.8054 29.2394 33.6454 29.1487C33.4854 29.0527 33.2987 29.0047 33.0854 29.0047C32.8721 29.0047 32.6827 29.0527 32.5174 29.1487C32.3574 29.2394 32.2321 29.37 32.1414 29.5407C32.0507 29.706 32.0054 29.9034 32.0054 30.1327V30.3247C32.0054 30.5594 32.0561 30.7674 32.1574 30.9487C32.2641 31.1247 32.4107 31.2607 32.5974 31.3567C32.7894 31.4474 33.0134 31.4927 33.2694 31.4927C33.4987 31.4927 33.6987 31.458 33.8694 31.3887C34.0454 31.3194 34.2054 31.2154 34.3494 31.0767L35.0134 31.7967C34.8161 32.0207 34.5681 32.194 34.2694 32.3167C33.9707 32.434 33.6267 32.4927 33.2374 32.4927Z" fill="white"/>
</g>
<rect width="2.85713" height="9.99996" transform="translate(14.2861 35.8572)" fill="url(#paint4_linear_2160_146)"/>
<defs>
<linearGradient id="paint0_linear_2160_146" x1="1.42858" y1="2.85713" x2="1.42857" y2="46.4284" gradientUnits="userSpaceOnUse">
<stop stop-color="#41D1FF"/>
<stop offset="1" stop-color="#23DA9A"/>
</linearGradient>
<linearGradient id="paint1_linear_2160_146" x1="1.42857" y1="0" x2="1.42857" y2="45.7141" gradientUnits="userSpaceOnUse">
<stop stop-color="#FFC23E"/>
<stop offset="0.5" stop-color="#91CE6C"/>
<stop offset="1" stop-color="#23DA9A"/>
</linearGradient>
<linearGradient id="paint2_linear_2160_146" x1="1.42858" y1="2.85713" x2="1.42858" y2="45.7141" gradientUnits="userSpaceOnUse">
<stop stop-color="#FD123D"/>
<stop offset="1" stop-color="#FFCB3D"/>
</linearGradient>
<linearGradient id="paint3_linear_2160_146" x1="1.42857" y1="0" x2="1.42857" y2="24.2856" gradientUnits="userSpaceOnUse">
<stop stop-color="#FD123D"/>
<stop offset="1" stop-color="#8C12FD"/>
</linearGradient>
<linearGradient id="paint4_linear_2160_146" x1="1.42857" y1="0" x2="1.42857" y2="9.99996" gradientUnits="userSpaceOnUse">
<stop stop-color="#9B12FD"/>
<stop offset="1" stop-color="#4DC6EB"/>
</linearGradient>
<clipPath id="clip0_2160_146">
<rect width="44.2855" height="9.99996" fill="white" transform="translate(0 24.4287)"/>
</clipPath>
</defs>
</svg>
